<svg xmlns="http://www.w3.org/2000/svg" version="1.1" xmlns:xlink="http://www.w3.org/1999/xlink" xmlns:svgjs="http://svgjs.dev/svgjs" width="1920" height="1080" preserveAspectRatio="none" viewBox="0 0 1920 1080"><g mask="url(&quot;#SvgjsMask1000&quot;)" fill="none"><path d="M69.09 -64.99L134.04 -27.49L134.04 47.51L69.09 85.01L4.14 47.51L4.14 -27.49zM69.09 160.01L134.04 197.51L134.04 272.51L69.09 310.01L4.14 272.51L4.14 197.51zM134.04 272.51L199 310.01L199 385.01L134.04 422.51L69.09 385.01L69.09 310.01zM69.09 835.01L134.04 872.51L134.04 947.51L69.09 985.01L4.14 947.51L4.14 872.51zM263.95 47.51L328.9 85.01L328.9 160.01L263.95 197.51L199 160.01L199 85.01zM263.95 722.51L328.9 760.01L328.9 835.01L263.95 872.51L199 835.01L199 760.01zM199 835.01L263.95 872.51L263.95 947.51L199 985.01L134.04 947.51L134.04 872.51zM199 1060.01L263.95 1097.51L263.95 1172.51L199 1210.01L134.04 1172.51L134.04 1097.51zM328.9 -64.99L393.86 -27.49L393.86 47.51L328.9 85.01L263.95 47.51L263.95 -27.49zM328.9 160.01L393.86 197.51L393.86 272.51L328.9 310.01L263.95 272.51L263.95 197.51zM393.86 272.51L458.81 310.01L458.81 385.01L393.86 422.51L328.9 385.01L328.9 310.01zM328.9 385.01L393.86 422.51L393.86 497.51L328.9 535.01L263.95 497.51L263.95 422.51zM393.86 722.51L458.81 760.01L458.81 835.01L393.86 872.51L328.9 835.01L328.9 760.01zM328.9 835.01L393.86 872.51L393.86 947.51L328.9 985.01L263.95 947.51L263.95 872.51zM458.81 -64.99L523.77 -27.49L523.77 47.51L458.81 85.01L393.86 47.51L393.86 -27.49zM523.77 47.51L588.72 85.01L588.72 160.01L523.77 197.51L458.81 160.01L458.81 85.01zM458.81 610.01L523.77 647.51L523.77 722.51L458.81 760.01L393.86 722.51L393.86 647.51zM458.81 835.01L523.77 872.51L523.77 947.51L458.81 985.01L393.86 947.51L393.86 872.51zM523.77 947.51L588.72 985.01L588.72 1060.01L523.77 1097.51L458.81 1060.01L458.81 985.01zM588.72 -64.99L653.67 -27.49L653.67 47.51L588.72 85.01L523.77 47.51L523.77 -27.49zM653.67 47.51L718.63 85.01L718.63 160.01L653.67 197.51L588.72 160.01L588.72 85.01zM653.67 272.51L718.63 310.01L718.63 385.01L653.67 422.51L588.72 385.01L588.72 310.01zM588.72 1060.01L653.67 1097.51L653.67 1172.51L588.72 1210.01L523.77 1172.51L523.77 1097.51zM718.63 610.01L783.58 647.51L783.58 722.51L718.63 760.01L653.67 722.51L653.67 647.51zM783.58 947.51L848.54 985.01L848.54 1060.01L783.58 1097.51L718.63 1060.01L718.63 985.01zM718.63 1060.01L783.58 1097.51L783.58 1172.51L718.63 1210.01L653.67 1172.51L653.67 1097.51zM848.53 160.01L913.49 197.51L913.49 272.51L848.53 310.01L783.58 272.51L783.58 197.51zM913.49 722.51L978.44 760.01L978.44 835.01L913.49 872.51L848.53 835.01L848.53 760.01zM848.53 1060.01L913.49 1097.51L913.49 1172.51L848.53 1210.01L783.58 1172.51L783.58 1097.51zM1043.4 272.51L1108.35 310.01L1108.35 385.01L1043.4 422.51L978.44 385.01L978.44 310.01zM1043.4 497.51L1108.35 535.01L1108.35 610.01L1043.4 647.51L978.44 610.01L978.44 535.01zM978.44 610.01L1043.4 647.51L1043.4 722.51L978.44 760.01L913.49 722.51L913.49 647.51zM978.44 835.01L1043.4 872.51L1043.4 947.51L978.44 985.01L913.49 947.51L913.49 872.51zM978.44 1060.01L1043.4 1097.51L1043.4 1172.51L978.44 1210.01L913.49 1172.51L913.49 1097.51zM1173.3 47.51L1238.26 85.01L1238.26 160.01L1173.3 197.51L1108.35 160.01L1108.35 85.01zM1108.35 160.01L1173.3 197.51L1173.3 272.51L1108.35 310.01L1043.4 272.51L1043.4 197.51zM1173.3 272.51L1238.26 310.01L1238.26 385.01L1173.3 422.51L1108.35 385.01L1108.35 310.01zM1173.3 497.51L1238.26 535.01L1238.26 610.01L1173.3 647.51L1108.35 610.01L1108.35 535.01zM1108.35 610.01L1173.3 647.51L1173.3 722.51L1108.35 760.01L1043.4 722.51L1043.4 647.51zM1173.3 947.51L1238.26 985.01L1238.26 1060.01L1173.3 1097.51L1108.35 1060.01L1108.35 985.01zM1303.21 47.51L1368.16 85.01L1368.16 160.01L1303.21 197.51L1238.26 160.01L1238.26 85.01zM1303.21 497.51L1368.16 535.01L1368.16 610.01L1303.21 647.51L1238.26 610.01L1238.26 535.01zM1303.21 722.51L1368.16 760.01L1368.16 835.01L1303.21 872.51L1238.26 835.01L1238.26 760.01zM1368.16 610.01L1433.12 647.51L1433.12 722.51L1368.16 760.01L1303.21 722.51L1303.21 647.51zM1368.16 1060.01L1433.12 1097.51L1433.12 1172.51L1368.16 1210.01L1303.21 1172.51L1303.21 1097.51zM1498.07 -64.99L1563.03 -27.49L1563.03 47.51L1498.07 85.01L1433.12 47.51L1433.12 -27.49zM1563.03 47.51L1627.98 85.01L1627.98 160.01L1563.03 197.51L1498.07 160.01L1498.07 85.01zM1498.07 610.01L1563.03 647.51L1563.03 722.51L1498.07 760.01L1433.12 722.51L1433.12 647.51zM1563.03 722.51L1627.98 760.01L1627.98 835.01L1563.03 872.51L1498.07 835.01L1498.07 760.01zM1498.07 1060.01L1563.03 1097.51L1563.03 1172.51L1498.07 1210.01L1433.12 1172.51L1433.12 1097.51zM1627.98 160.01L1692.93 197.51L1692.93 272.51L1627.98 310.01L1563.03 272.51L1563.03 197.51zM1692.93 272.51L1757.89 310.01L1757.89 385.01L1692.93 422.51L1627.98 385.01L1627.98 310.01zM1692.93 497.51L1757.89 535.01L1757.89 610.01L1692.93 647.51L1627.98 610.01L1627.98 535.01zM1627.98 1060.01L1692.93 1097.51L1692.93 1172.51L1627.98 1210.01L1563.03 1172.51L1563.03 1097.51zM1822.84 47.51L1887.79 85.01L1887.79 160.01L1822.84 197.51L1757.89 160.01L1757.89 85.01zM1757.89 610.01L1822.84 647.51L1822.84 722.51L1757.89 760.01L1692.93 722.51L1692.93 647.51zM1822.84 722.51L1887.79 760.01L1887.79 835.01L1822.84 872.51L1757.89 835.01L1757.89 760.01zM1757.89 835.01L1822.84 872.51L1822.84 947.51L1757.89 985.01L1692.93 947.51L1692.93 872.51zM1887.79 -64.99L1952.75 -27.49L1952.75 47.51L1887.79 85.01L1822.84 47.51L1822.84 -27.49zM1952.75 47.51L2017.7 85.01L2017.7 160.01L1952.75 197.51L1887.79 160.01L1887.79 85.01zM1887.79 160.01L1952.75 197.51L1952.75 272.51L1887.79 310.01L1822.84 272.51L1822.84 197.51zM1952.75 497.51L2017.7 535.01L2017.7 610.01L1952.75 647.51L1887.79 610.01L1887.79 535.01zM1952.75 722.51L2017.7 760.01L2017.7 835.01L1952.75 872.51L1887.79 835.01L1887.79 760.01zM1887.79 835.01L1952.75 872.51L1952.75 947.51L1887.79 985.01L1822.84 947.51L1822.84 872.51z" stroke="rgba(0, 0, 0, 0.14)" stroke-width="2"></path><path d="M61.59 -64.99 a7.5 7.5 0 1 0 15 0 a7.5 7.5 0 1 0 -15 0zM126.54 -27.49 a7.5 7.5 0 1 0 15 0 a7.5 7.5 0 1 0 -15 0zM126.54 47.51 a7.5 7.5 0 1 0 15 0 a7.5 7.5 0 1 0 -15 0zM61.59 85.01 a7.5 7.5 0 1 0 15 0 a7.5 7.5 0 1 0 -15 0zM-3.36 47.51 a7.5 7.5 0 1 0 15 0 a7.5 7.5 0 1 0 -15 0zM-3.36 -27.49 a7.5 7.5 0 1 0 15 0 a7.5 7.5 0 1 0 -15 0zM61.59 160.01 a7.5 7.5 0 1 0 15 0 a7.5 7.5 0 1 0 -15 0zM126.54 197.51 a7.5 7.5 0 1 0 15 0 a7.5 7.5 0 1 0 -15 0zM126.54 272.51 a7.5 7.5 0 1 0 15 0 a7.5 7.5 0 1 0 -15 0zM61.59 310.01 a7.5 7.5 0 1 0 15 0 a7.5 7.5 0 1 0 -15 0zM-3.36 272.51 a7.5 7.5 0 1 0 15 0 a7.5 7.5 0 1 0 -15 0zM-3.36 197.51 a7.5 7.5 0 1 0 15 0 a7.5 7.5 0 1 0 -15 0zM191.5 310.01 a7.5 7.5 0 1 0 15 0 a7.5 7.5 0 1 0 -15 0zM191.5 385.01 a7.5 7.5 0 1 0 15 0 a7.5 7.5 0 1 0 -15 0zM126.54 422.51 a7.5 7.5 0 1 0 15 0 a7.5 7.5 0 1 0 -15 0zM61.59 385.01 a7.5 7.5 0 1 0 15 0 a7.5 7.5 0 1 0 -15 0zM61.59 835.01 a7.5 7.5 0 1 0 15 0 a7.5 7.5 0 1 0 -15 0zM126.54 872.51 a7.5 7.5 0 1 0 15 0 a7.5 7.5 0 1 0 -15 0zM126.54 947.51 a7.5 7.5 0 1 0 15 0 a7.5 7.5 0 1 0 -15 0zM61.59 985.01 a7.5 7.5 0 1 0 15 0 a7.5 7.5 0 1 0 -15 0zM-3.36 947.51 a7.5 7.5 0 1 0 15 0 a7.5 7.5 0 1 0 -15 0zM-3.36 872.51 a7.5 7.5 0 1 0 15 0 a7.5 7.5 0 1 0 -15 0zM256.45 47.51 a7.5 7.5 0 1 0 15 0 a7.5 7.5 0 1 0 -15 0zM321.4 85.01 a7.5 7.5 0 1 0 15 0 a7.5 7.5 0 1 0 -15 0zM321.4 160.01 a7.5 7.5 0 1 0 15 0 a7.5 7.5 0 1 0 -15 0zM256.45 197.51 a7.5 7.5 0 1 0 15 0 a7.5 7.5 0 1 0 -15 0zM191.5 160.01 a7.5 7.5 0 1 0 15 0 a7.5 7.5 0 1 0 -15 0zM191.5 85.01 a7.5 7.5 0 1 0 15 0 a7.5 7.5 0 1 0 -15 0zM256.45 722.51 a7.5 7.5 0 1 0 15 0 a7.5 7.5 0 1 0 -15 0zM321.4 760.01 a7.5 7.5 0 1 0 15 0 a7.5 7.5 0 1 0 -15 0zM321.4 835.01 a7.5 7.5 0 1 0 15 0 a7.5 7.5 0 1 0 -15 0zM256.45 872.51 a7.5 7.5 0 1 0 15 0 a7.5 7.5 0 1 0 -15 0zM191.5 835.01 a7.5 7.5 0 1 0 15 0 a7.5 7.5 0 1 0 -15 0zM191.5 760.01 a7.5 7.5 0 1 0 15 0 a7.5 7.5 0 1 0 -15 0zM256.45 947.51 a7.5 7.5 0 1 0 15 0 a7.5 7.5 0 1 0 -15 0zM191.5 985.01 a7.5 7.5 0 1 0 15 0 a7.5 7.5 0 1 0 -15 0zM191.5 1060.01 a7.5 7.5 0 1 0 15 0 a7.5 7.5 0 1 0 -15 0zM256.45 1097.51 a7.5 7.5 0 1 0 15 0 a7.5 7.5 0 1 0 -15 0zM256.45 1172.51 a7.5 7.5 0 1 0 15 0 a7.5 7.5 0 1 0 -15 0zM191.5 1210.01 a7.5 7.5 0 1 0 15 0 a7.5 7.5 0 1 0 -15 0zM126.54 1172.51 a7.5 7.5 0 1 0 15 0 a7.5 7.5 0 1 0 -15 0zM126.54 1097.51 a7.5 7.5 0 1 0 15 0 a7.5 7.5 0 1 0 -15 0zM321.4 -64.99 a7.5 7.5 0 1 0 15 0 a7.5 7.5 0 1 0 -15 0zM386.36 -27.49 a7.5 7.5 0 1 0 15 0 a7.5 7.5 0 1 0 -15 0zM386.36 47.51 a7.5 7.5 0 1 0 15 0 a7.5 7.5 0 1 0 -15 0zM256.45 -27.49 a7.5 7.5 0 1 0 15 0 a7.5 7.5 0 1 0 -15 0zM386.36 197.51 a7.5 7.5 0 1 0 15 0 a7.5 7.5 0 1 0 -15 0zM386.36 272.51 a7.5 7.5 0 1 0 15 0 a7.5 7.5 0 1 0 -15 0zM321.4 310.01 a7.5 7.5 0 1 0 15 0 a7.5 7.5 0 1 0 -15 0zM256.45 272.51 a7.5 7.5 0 1 0 15 0 a7.5 7.5 0 1 0 -15 0zM451.31 310.01 a7.5 7.5 0 1 0 15 0 a7.5 7.5 0 1 0 -15 0zM451.31 385.01 a7.5 7.5 0 1 0 15 0 a7.5 7.5 0 1 0 -15 0zM386.36 422.51 a7.5 7.5 0 1 0 15 0 a7.5 7.5 0 1 0 -15 0zM321.4 385.01 a7.5 7.5 0 1 0 15 0 a7.5 7.5 0 1 0 -15 0zM386.36 497.51 a7.5 7.5 0 1 0 15 0 a7.5 7.5 0 1 0 -15 0zM321.4 535.01 a7.5 7.5 0 1 0 15 0 a7.5 7.5 0 1 0 -15 0zM256.45 497.51 a7.5 7.5 0 1 0 15 0 a7.5 7.5 0 1 0 -15 0zM256.45 422.51 a7.5 7.5 0 1 0 15 0 a7.5 7.5 0 1 0 -15 0zM386.36 722.51 a7.5 7.5 0 1 0 15 0 a7.5 7.5 0 1 0 -15 0zM451.31 760.01 a7.5 7.5 0 1 0 15 0 a7.5 7.5 0 1 0 -15 0zM451.31 835.01 a7.5 7.5 0 1 0 15 0 a7.5 7.5 0 1 0 -15 0zM386.36 872.51 a7.5 7.5 0 1 0 15 0 a7.5 7.5 0 1 0 -15 0zM386.36 947.51 a7.5 7.5 0 1 0 15 0 a7.5 7.5 0 1 0 -15 0zM321.4 985.01 a7.5 7.5 0 1 0 15 0 a7.5 7.5 0 1 0 -15 0zM451.31 -64.99 a7.5 7.5 0 1 0 15 0 a7.5 7.5 0 1 0 -15 0zM516.27 -27.49 a7.5 7.5 0 1 0 15 0 a7.5 7.5 0 1 0 -15 0zM516.27 47.51 a7.5 7.5 0 1 0 15 0 a7.5 7.5 0 1 0 -15 0zM451.31 85.01 a7.5 7.5 0 1 0 15 0 a7.5 7.5 0 1 0 -15 0zM581.22 85.01 a7.5 7.5 0 1 0 15 0 a7.5 7.5 0 1 0 -15 0zM581.22 160.01 a7.5 7.5 0 1 0 15 0 a7.5 7.5 0 1 0 -15 0zM516.27 197.51 a7.5 7.5 0 1 0 15 0 a7.5 7.5 0 1 0 -15 0zM451.31 160.01 a7.5 7.5 0 1 0 15 0 a7.5 7.5 0 1 0 -15 0zM451.31 610.01 a7.5 7.5 0 1 0 15 0 a7.5 7.5 0 1 0 -15 0zM516.27 647.51 a7.5 7.5 0 1 0 15 0 a7.5 7.5 0 1 0 -15 0zM516.27 722.51 a7.5 7.5 0 1 0 15 0 a7.5 7.5 0 1 0 -15 0zM386.36 647.51 a7.5 7.5 0 1 0 15 0 a7.5 7.5 0 1 0 -15 0zM516.27 872.51 a7.5 7.5 0 1 0 15 0 a7.5 7.5 0 1 0 -15 0zM516.27 947.51 a7.5 7.5 0 1 0 15 0 a7.5 7.5 0 1 0 -15 0zM451.31 985.01 a7.5 7.5 0 1 0 15 0 a7.5 7.5 0 1 0 -15 0zM581.22 985.01 a7.5 7.5 0 1 0 15 0 a7.5 7.5 0 1 0 -15 0zM581.22 1060.01 a7.5 7.5 0 1 0 15 0 a7.5 7.5 0 1 0 -15 0zM516.27 1097.51 a7.5 7.5 0 1 0 15 0 a7.5 7.5 0 1 0 -15 0zM451.31 1060.01 a7.5 7.5 0 1 0 15 0 a7.5 7.5 0 1 0 -15 0zM581.22 -64.99 a7.5 7.5 0 1 0 15 0 a7.5 7.5 0 1 0 -15 0zM646.17 -27.49 a7.5 7.5 0 1 0 15 0 a7.5 7.5 0 1 0 -15 0zM646.17 47.51 a7.5 7.5 0 1 0 15 0 a7.5 7.5 0 1 0 -15 0zM711.13 85.01 a7.5 7.5 0 1 0 15 0 a7.5 7.5 0 1 0 -15 0zM711.13 160.01 a7.5 7.5 0 1 0 15 0 a7.5 7.5 0 1 0 -15 0zM646.17 197.51 a7.5 7.5 0 1 0 15 0 a7.5 7.5 0 1 0 -15 0zM646.17 272.51 a7.5 7.5 0 1 0 15 0 a7.5 7.5 0 1 0 -15 0zM711.13 310.01 a7.5 7.5 0 1 0 15 0 a7.5 7.5 0 1 0 -15 0zM711.13 385.01 a7.5 7.5 0 1 0 15 0 a7.5 7.5 0 1 0 -15 0zM646.17 422.51 a7.5 7.5 0 1 0 15 0 a7.5 7.5 0 1 0 -15 0zM581.22 385.01 a7.5 7.5 0 1 0 15 0 a7.5 7.5 0 1 0 -15 0zM581.22 310.01 a7.5 7.5 0 1 0 15 0 a7.5 7.5 0 1 0 -15 0zM646.17 1097.51 a7.5 7.5 0 1 0 15 0 a7.5 7.5 0 1 0 -15 0zM646.17 1172.51 a7.5 7.5 0 1 0 15 0 a7.5 7.5 0 1 0 -15 0zM581.22 1210.01 a7.5 7.5 0 1 0 15 0 a7.5 7.5 0 1 0 -15 0zM516.27 1172.51 a7.5 7.5 0 1 0 15 0 a7.5 7.5 0 1 0 -15 0zM711.13 610.01 a7.5 7.5 0 1 0 15 0 a7.5 7.5 0 1 0 -15 0zM776.08 647.51 a7.5 7.5 0 1 0 15 0 a7.5 7.5 0 1 0 -15 0zM776.08 722.51 a7.5 7.5 0 1 0 15 0 a7.5 7.5 0 1 0 -15 0zM711.13 760.01 a7.5 7.5 0 1 0 15 0 a7.5 7.5 0 1 0 -15 0zM646.17 722.51 a7.5 7.5 0 1 0 15 0 a7.5 7.5 0 1 0 -15 0zM646.17 647.51 a7.5 7.5 0 1 0 15 0 a7.5 7.5 0 1 0 -15 0zM776.08 947.51 a7.5 7.5 0 1 0 15 0 a7.5 7.5 0 1 0 -15 0zM841.04 985.01 a7.5 7.5 0 1 0 15 0 a7.5 7.5 0 1 0 -15 0zM841.04 1060.01 a7.5 7.5 0 1 0 15 0 a7.5 7.5 0 1 0 -15 0zM776.08 1097.51 a7.5 7.5 0 1 0 15 0 a7.5 7.5 0 1 0 -15 0zM711.13 1060.01 a7.5 7.5 0 1 0 15 0 a7.5 7.5 0 1 0 -15 0zM711.13 985.01 a7.5 7.5 0 1 0 15 0 a7.5 7.5 0 1 0 -15 0zM776.08 1172.51 a7.5 7.5 0 1 0 15 0 a7.5 7.5 0 1 0 -15 0zM711.13 1210.01 a7.5 7.5 0 1 0 15 0 a7.5 7.5 0 1 0 -15 0zM841.03 160.01 a7.5 7.5 0 1 0 15 0 a7.5 7.5 0 1 0 -15 0zM905.99 197.51 a7.5 7.5 0 1 0 15 0 a7.5 7.5 0 1 0 -15 0zM905.99 272.51 a7.5 7.5 0 1 0 15 0 a7.5 7.5 0 1 0 -15 0zM841.03 310.01 a7.5 7.5 0 1 0 15 0 a7.5 7.5 0 1 0 -15 0zM776.08 272.51 a7.5 7.5 0 1 0 15 0 a7.5 7.5 0 1 0 -15 0zM776.08 197.51 a7.5 7.5 0 1 0 15 0 a7.5 7.5 0 1 0 -15 0zM905.99 722.51 a7.5 7.5 0 1 0 15 0 a7.5 7.5 0 1 0 -15 0zM970.94 760.01 a7.5 7.5 0 1 0 15 0 a7.5 7.5 0 1 0 -15 0zM970.94 835.01 a7.5 7.5 0 1 0 15 0 a7.5 7.5 0 1 0 -15 0zM905.99 872.51 a7.5 7.5 0 1 0 15 0 a7.5 7.5 0 1 0 -15 0zM841.03 835.01 a7.5 7.5 0 1 0 15 0 a7.5 7.5 0 1 0 -15 0zM841.03 760.01 a7.5 7.5 0 1 0 15 0 a7.5 7.5 0 1 0 -15 0zM841.03 1060.01 a7.5 7.5 0 1 0 15 0 a7.5 7.5 0 1 0 -15 0zM905.99 1097.51 a7.5 7.5 0 1 0 15 0 a7.5 7.5 0 1 0 -15 0zM905.99 1172.51 a7.5 7.5 0 1 0 15 0 a7.5 7.5 0 1 0 -15 0zM841.03 1210.01 a7.5 7.5 0 1 0 15 0 a7.5 7.5 0 1 0 -15 0zM1035.9 272.51 a7.5 7.5 0 1 0 15 0 a7.5 7.5 0 1 0 -15 0zM1100.85 310.01 a7.5 7.5 0 1 0 15 0 a7.5 7.5 0 1 0 -15 0zM1100.85 385.01 a7.5 7.5 0 1 0 15 0 a7.5 7.5 0 1 0 -15 0zM1035.9 422.51 a7.5 7.5 0 1 0 15 0 a7.5 7.5 0 1 0 -15 0zM970.94 385.01 a7.5 7.5 0 1 0 15 0 a7.5 7.5 0 1 0 -15 0zM970.94 310.01 a7.5 7.5 0 1 0 15 0 a7.5 7.5 0 1 0 -15 0zM1035.9 497.51 a7.5 7.5 0 1 0 15 0 a7.5 7.5 0 1 0 -15 0zM1100.85 535.01 a7.5 7.5 0 1 0 15 0 a7.5 7.5 0 1 0 -15 0zM1100.85 610.01 a7.5 7.5 0 1 0 15 0 a7.5 7.5 0 1 0 -15 0zM1035.9 647.51 a7.5 7.5 0 1 0 15 0 a7.5 7.5 0 1 0 -15 0zM970.94 610.01 a7.5 7.5 0 1 0 15 0 a7.5 7.5 0 1 0 -15 0zM970.94 535.01 a7.5 7.5 0 1 0 15 0 a7.5 7.5 0 1 0 -15 0zM1035.9 722.51 a7.5 7.5 0 1 0 15 0 a7.5 7.5 0 1 0 -15 0zM905.99 647.51 a7.5 7.5 0 1 0 15 0 a7.5 7.5 0 1 0 -15 0zM1035.9 872.51 a7.5 7.5 0 1 0 15 0 a7.5 7.5 0 1 0 -15 0zM1035.9 947.51 a7.5 7.5 0 1 0 15 0 a7.5 7.5 0 1 0 -15 0zM970.94 985.01 a7.5 7.5 0 1 0 15 0 a7.5 7.5 0 1 0 -15 0zM905.99 947.51 a7.5 7.5 0 1 0 15 0 a7.5 7.5 0 1 0 -15 0zM970.94 1060.01 a7.5 7.5 0 1 0 15 0 a7.5 7.5 0 1 0 -15 0zM1035.9 1097.51 a7.5 7.5 0 1 0 15 0 a7.5 7.5 0 1 0 -15 0zM1035.9 1172.51 a7.5 7.5 0 1 0 15 0 a7.5 7.5 0 1 0 -15 0zM970.94 1210.01 a7.5 7.5 0 1 0 15 0 a7.5 7.5 0 1 0 -15 0zM1165.8 47.51 a7.5 7.5 0 1 0 15 0 a7.5 7.5 0 1 0 -15 0zM1230.76 85.01 a7.5 7.5 0 1 0 15 0 a7.5 7.5 0 1 0 -15 0zM1230.76 160.01 a7.5 7.5 0 1 0 15 0 a7.5 7.5 0 1 0 -15 0zM1165.8 197.51 a7.5 7.5 0 1 0 15 0 a7.5 7.5 0 1 0 -15 0zM1100.85 160.01 a7.5 7.5 0 1 0 15 0 a7.5 7.5 0 1 0 -15 0zM1100.85 85.01 a7.5 7.5 0 1 0 15 0 a7.5 7.5 0 1 0 -15 0zM1165.8 272.51 a7.5 7.5 0 1 0 15 0 a7.5 7.5 0 1 0 -15 0zM1035.9 197.51 a7.5 7.5 0 1 0 15 0 a7.5 7.5 0 1 0 -15 0zM1230.76 310.01 a7.5 7.5 0 1 0 15 0 a7.5 7.5 0 1 0 -15 0zM1230.76 385.01 a7.5 7.5 0 1 0 15 0 a7.5 7.5 0 1 0 -15 0zM1165.8 422.51 a7.5 7.5 0 1 0 15 0 a7.5 7.5 0 1 0 -15 0zM1165.8 497.51 a7.5 7.5 0 1 0 15 0 a7.5 7.5 0 1 0 -15 0zM1230.76 535.01 a7.5 7.5 0 1 0 15 0 a7.5 7.5 0 1 0 -15 0zM1230.76 610.01 a7.5 7.5 0 1 0 15 0 a7.5 7.5 0 1 0 -15 0zM1165.8 647.51 a7.5 7.5 0 1 0 15 0 a7.5 7.5 0 1 0 -15 0zM1165.8 722.51 a7.5 7.5 0 1 0 15 0 a7.5 7.5 0 1 0 -15 0zM1100.85 760.01 a7.5 7.5 0 1 0 15 0 a7.5 7.5 0 1 0 -15 0zM1165.8 947.51 a7.5 7.5 0 1 0 15 0 a7.5 7.5 0 1 0 -15 0zM1230.76 985.01 a7.5 7.5 0 1 0 15 0 a7.5 7.5 0 1 0 -15 0zM1230.76 1060.01 a7.5 7.5 0 1 0 15 0 a7.5 7.5 0 1 0 -15 0zM1165.8 1097.51 a7.5 7.5 0 1 0 15 0 a7.5 7.5 0 1 0 -15 0zM1100.85 1060.01 a7.5 7.5 0 1 0 15 0 a7.5 7.5 0 1 0 -15 0zM1100.85 985.01 a7.5 7.5 0 1 0 15 0 a7.5 7.5 0 1 0 -15 0zM1295.71 47.51 a7.5 7.5 0 1 0 15 0 a7.5 7.5 0 1 0 -15 0zM1360.66 85.01 a7.5 7.5 0 1 0 15 0 a7.5 7.5 0 1 0 -15 0zM1360.66 160.01 a7.5 7.5 0 1 0 15 0 a7.5 7.5 0 1 0 -15 0zM1295.71 197.51 a7.5 7.5 0 1 0 15 0 a7.5 7.5 0 1 0 -15 0zM1295.71 497.51 a7.5 7.5 0 1 0 15 0 a7.5 7.5 0 1 0 -15 0zM1360.66 535.01 a7.5 7.5 0 1 0 15 0 a7.5 7.5 0 1 0 -15 0zM1360.66 610.01 a7.5 7.5 0 1 0 15 0 a7.5 7.5 0 1 0 -15 0zM1295.71 647.51 a7.5 7.5 0 1 0 15 0 a7.5 7.5 0 1 0 -15 0zM1295.71 722.51 a7.5 7.5 0 1 0 15 0 a7.5 7.5 0 1 0 -15 0zM1360.66 760.01 a7.5 7.5 0 1 0 15 0 a7.5 7.5 0 1 0 -15 0zM1360.66 835.01 a7.5 7.5 0 1 0 15 0 a7.5 7.5 0 1 0 -15 0zM1295.71 872.51 a7.5 7.5 0 1 0 15 0 a7.5 7.5 0 1 0 -15 0zM1230.76 835.01 a7.5 7.5 0 1 0 15 0 a7.5 7.5 0 1 0 -15 0zM1230.76 760.01 a7.5 7.5 0 1 0 15 0 a7.5 7.5 0 1 0 -15 0zM1425.62 647.51 a7.5 7.5 0 1 0 15 0 a7.5 7.5 0 1 0 -15 0zM1425.62 722.51 a7.5 7.5 0 1 0 15 0 a7.5 7.5 0 1 0 -15 0zM1360.66 1060.01 a7.5 7.5 0 1 0 15 0 a7.5 7.5 0 1 0 -15 0zM1425.62 1097.51 a7.5 7.5 0 1 0 15 0 a7.5 7.5 0 1 0 -15 0zM1425.62 1172.51 a7.5 7.5 0 1 0 15 0 a7.5 7.5 0 1 0 -15 0zM1360.66 1210.01 a7.5 7.5 0 1 0 15 0 a7.5 7.5 0 1 0 -15 0zM1295.71 1172.51 a7.5 7.5 0 1 0 15 0 a7.5 7.5 0 1 0 -15 0zM1295.71 1097.51 a7.5 7.5 0 1 0 15 0 a7.5 7.5 0 1 0 -15 0zM1490.57 -64.99 a7.5 7.5 0 1 0 15 0 a7.5 7.5 0 1 0 -15 0zM1555.53 -27.49 a7.5 7.5 0 1 0 15 0 a7.5 7.5 0 1 0 -15 0zM1555.53 47.51 a7.5 7.5 0 1 0 15 0 a7.5 7.5 0 1 0 -15 0zM1490.57 85.01 a7.5 7.5 0 1 0 15 0 a7.5 7.5 0 1 0 -15 0zM1425.62 47.51 a7.5 7.5 0 1 0 15 0 a7.5 7.5 0 1 0 -15 0zM1425.62 -27.49 a7.5 7.5 0 1 0 15 0 a7.5 7.5 0 1 0 -15 0zM1620.48 85.01 a7.5 7.5 0 1 0 15 0 a7.5 7.5 0 1 0 -15 0zM1620.48 160.01 a7.5 7.5 0 1 0 15 0 a7.5 7.5 0 1 0 -15 0zM1555.53 197.51 a7.5 7.5 0 1 0 15 0 a7.5 7.5 0 1 0 -15 0zM1490.57 160.01 a7.5 7.5 0 1 0 15 0 a7.5 7.5 0 1 0 -15 0zM1490.57 610.01 a7.5 7.5 0 1 0 15 0 a7.5 7.5 0 1 0 -15 0zM1555.53 647.51 a7.5 7.5 0 1 0 15 0 a7.5 7.5 0 1 0 -15 0zM1555.53 722.51 a7.5 7.5 0 1 0 15 0 a7.5 7.5 0 1 0 -15 0zM1490.57 760.01 a7.5 7.5 0 1 0 15 0 a7.5 7.5 0 1 0 -15 0zM1620.48 760.01 a7.5 7.5 0 1 0 15 0 a7.5 7.5 0 1 0 -15 0zM1620.48 835.01 a7.5 7.5 0 1 0 15 0 a7.5 7.5 0 1 0 -15 0zM1555.53 872.51 a7.5 7.5 0 1 0 15 0 a7.5 7.5 0 1 0 -15 0zM1490.57 835.01 a7.5 7.5 0 1 0 15 0 a7.5 7.5 0 1 0 -15 0zM1490.57 1060.01 a7.5 7.5 0 1 0 15 0 a7.5 7.5 0 1 0 -15 0zM1555.53 1097.51 a7.5 7.5 0 1 0 15 0 a7.5 7.5 0 1 0 -15 0zM1555.53 1172.51 a7.5 7.5 0 1 0 15 0 a7.5 7.5 0 1 0 -15 0zM1490.57 1210.01 a7.5 7.5 0 1 0 15 0 a7.5 7.5 0 1 0 -15 0zM1685.43 197.51 a7.5 7.5 0 1 0 15 0 a7.5 7.5 0 1 0 -15 0zM1685.43 272.51 a7.5 7.5 0 1 0 15 0 a7.5 7.5 0 1 0 -15 0zM1620.48 310.01 a7.5 7.5 0 1 0 15 0 a7.5 7.5 0 1 0 -15 0zM1555.53 272.51 a7.5 7.5 0 1 0 15 0 a7.5 7.5 0 1 0 -15 0zM1750.39 310.01 a7.5 7.5 0 1 0 15 0 a7.5 7.5 0 1 0 -15 0zM1750.39 385.01 a7.5 7.5 0 1 0 15 0 a7.5 7.5 0 1 0 -15 0zM1685.43 422.51 a7.5 7.5 0 1 0 15 0 a7.5 7.5 0 1 0 -15 0zM1620.48 385.01 a7.5 7.5 0 1 0 15 0 a7.5 7.5 0 1 0 -15 0zM1685.43 497.51 a7.5 7.5 0 1 0 15 0 a7.5 7.5 0 1 0 -15 0zM1750.39 535.01 a7.5 7.5 0 1 0 15 0 a7.5 7.5 0 1 0 -15 0zM1750.39 610.01 a7.5 7.5 0 1 0 15 0 a7.5 7.5 0 1 0 -15 0zM1685.43 647.51 a7.5 7.5 0 1 0 15 0 a7.5 7.5 0 1 0 -15 0zM1620.48 610.01 a7.5 7.5 0 1 0 15 0 a7.5 7.5 0 1 0 -15 0zM1620.48 535.01 a7.5 7.5 0 1 0 15 0 a7.5 7.5 0 1 0 -15 0zM1620.48 1060.01 a7.5 7.5 0 1 0 15 0 a7.5 7.5 0 1 0 -15 0zM1685.43 1097.51 a7.5 7.5 0 1 0 15 0 a7.5 7.5 0 1 0 -15 0zM1685.43 1172.51 a7.5 7.5 0 1 0 15 0 a7.5 7.5 0 1 0 -15 0zM1620.48 1210.01 a7.5 7.5 0 1 0 15 0 a7.5 7.5 0 1 0 -15 0zM1815.34 47.51 a7.5 7.5 0 1 0 15 0 a7.5 7.5 0 1 0 -15 0zM1880.29 85.01 a7.5 7.5 0 1 0 15 0 a7.5 7.5 0 1 0 -15 0zM1880.29 160.01 a7.5 7.5 0 1 0 15 0 a7.5 7.5 0 1 0 -15 0zM1815.34 197.51 a7.5 7.5 0 1 0 15 0 a7.5 7.5 0 1 0 -15 0zM1750.39 160.01 a7.5 7.5 0 1 0 15 0 a7.5 7.5 0 1 0 -15 0zM1750.39 85.01 a7.5 7.5 0 1 0 15 0 a7.5 7.5 0 1 0 -15 0zM1815.34 647.51 a7.5 7.5 0 1 0 15 0 a7.5 7.5 0 1 0 -15 0zM1815.34 722.51 a7.5 7.5 0 1 0 15 0 a7.5 7.5 0 1 0 -15 0zM1750.39 760.01 a7.5 7.5 0 1 0 15 0 a7.5 7.5 0 1 0 -15 0zM1685.43 722.51 a7.5 7.5 0 1 0 15 0 a7.5 7.5 0 1 0 -15 0zM1880.29 760.01 a7.5 7.5 0 1 0 15 0 a7.5 7.5 0 1 0 -15 0zM1880.29 835.01 a7.5 7.5 0 1 0 15 0 a7.5 7.5 0 1 0 -15 0zM1815.34 872.51 a7.5 7.5 0 1 0 15 0 a7.5 7.5 0 1 0 -15 0zM1750.39 835.01 a7.5 7.5 0 1 0 15 0 a7.5 7.5 0 1 0 -15 0zM1815.34 947.51 a7.5 7.5 0 1 0 15 0 a7.5 7.5 0 1 0 -15 0zM1750.39 985.01 a7.5 7.5 0 1 0 15 0 a7.5 7.5 0 1 0 -15 0zM1685.43 947.51 a7.5 7.5 0 1 0 15 0 a7.5 7.5 0 1 0 -15 0zM1685.43 872.51 a7.5 7.5 0 1 0 15 0 a7.5 7.5 0 1 0 -15 0zM1880.29 -64.99 a7.5 7.5 0 1 0 15 0 a7.5 7.5 0 1 0 -15 0zM1945.25 -27.49 a7.5 7.5 0 1 0 15 0 a7.5 7.5 0 1 0 -15 0zM1945.25 47.51 a7.5 7.5 0 1 0 15 0 a7.5 7.5 0 1 0 -15 0zM1815.34 -27.49 a7.5 7.5 0 1 0 15 0 a7.5 7.5 0 1 0 -15 0zM2010.2 85.01 a7.5 7.5 0 1 0 15 0 a7.5 7.5 0 1 0 -15 0zM2010.2 160.01 a7.5 7.5 0 1 0 15 0 a7.5 7.5 0 1 0 -15 0zM1945.25 197.51 a7.5 7.5 0 1 0 15 0 a7.5 7.5 0 1 0 -15 0zM1945.25 272.51 a7.5 7.5 0 1 0 15 0 a7.5 7.5 0 1 0 -15 0zM1880.29 310.01 a7.5 7.5 0 1 0 15 0 a7.5 7.5 0 1 0 -15 0zM1815.34 272.51 a7.5 7.5 0 1 0 15 0 a7.5 7.5 0 1 0 -15 0zM1945.25 497.51 a7.5 7.5 0 1 0 15 0 a7.5 7.5 0 1 0 -15 0zM2010.2 535.01 a7.5 7.5 0 1 0 15 0 a7.5 7.5 0 1 0 -15 0zM2010.2 610.01 a7.5 7.5 0 1 0 15 0 a7.5 7.5 0 1 0 -15 0zM1945.25 647.51 a7.5 7.5 0 1 0 15 0 a7.5 7.5 0 1 0 -15 0zM1880.29 610.01 a7.5 7.5 0 1 0 15 0 a7.5 7.5 0 1 0 -15 0zM1880.29 535.01 a7.5 7.5 0 1 0 15 0 a7.5 7.5 0 1 0 -15 0zM1945.25 722.51 a7.5 7.5 0 1 0 15 0 a7.5 7.5 0 1 0 -15 0zM2010.2 760.01 a7.5 7.5 0 1 0 15 0 a7.5 7.5 0 1 0 -15 0zM2010.2 835.01 a7.5 7.5 0 1 0 15 0 a7.5 7.5 0 1 0 -15 0zM1945.25 872.51 a7.5 7.5 0 1 0 15 0 a7.5 7.5 0 1 0 -15 0zM1945.25 947.51 a7.5 7.5 0 1 0 15 0 a7.5 7.5 0 1 0 -15 0zM1880.29 985.01 a7.5 7.5 0 1 0 15 0 a7.5 7.5 0 1 0 -15 0z" fill="rgba(0, 0, 0, 0.14)"></path><path d="M29.37 213.89L114.24 262.89L114.24 360.89L29.37 409.89L-55.5 360.89L-55.5 262.89zM283.99 66.89L368.86 115.89L368.86 213.89L283.99 262.89L199.12 213.89L199.12 115.89zM199.12 213.89L283.99 262.89L283.99 360.89L199.12 409.89L114.24 360.89L114.24 262.89zM199.12 507.89L283.99 556.89L283.99 654.89L199.12 703.89L114.24 654.89L114.24 556.89zM368.86 213.89L453.73 262.89L453.73 360.89L368.86 409.89L283.99 360.89L283.99 262.89zM368.86 507.89L453.73 556.89L453.73 654.89L368.86 703.89L283.99 654.89L283.99 556.89zM623.48 360.89L708.35 409.89L708.35 507.89L623.48 556.89L538.61 507.89L538.61 409.89zM708.35 -80.11L793.23 -31.11L793.23 66.89L708.35 115.89L623.48 66.89L623.48 -31.11zM878.1 801.89L962.97 850.89L962.97 948.89L878.1 997.89L793.23 948.89L793.23 850.89zM1047.84 -80.11L1132.72 -31.11L1132.72 66.89L1047.84 115.89L962.97 66.89L962.97 -31.11zM1047.84 801.89L1132.72 850.89L1132.72 948.89L1047.84 997.89L962.97 948.89L962.97 850.89zM1302.46 654.89L1387.34 703.89L1387.34 801.89L1302.46 850.89L1217.59 801.89L1217.59 703.89zM1302.46 948.89L1387.34 997.89L1387.34 1095.89L1302.46 1144.89L1217.59 1095.89L1217.59 997.89zM1641.96 654.89L1726.83 703.89L1726.83 801.89L1641.96 850.89L1557.08 801.89L1557.08 703.89zM1557.08 801.89L1641.96 850.89L1641.96 948.89L1557.08 997.89L1472.21 948.89L1472.21 850.89zM1641.96 948.89L1726.83 997.89L1726.83 1095.89L1641.96 1144.89L1557.08 1095.89L1557.08 997.89zM1811.7 66.89L1896.57 115.89L1896.57 213.89L1811.7 262.89L1726.83 213.89L1726.83 115.89z" stroke="rgba(0, 0, 0, 0.16)" stroke-width="2"></path></g><defs><mask id="SvgjsMask1000"><rect width="1920" height="1080" fill="#ffffff"></rect></mask></defs></svg>