<svg xmlns="http://www.w3.org/2000/svg" version="1.1" xmlns:xlink="http://www.w3.org/1999/xlink" xmlns:svgjs="http://svgjs.dev/svgjs" width="1920" height="1080" preserveAspectRatio="none" viewBox="0 0 1920 1080"><g mask="url(&quot;#SvgjsMask1052&quot;)" fill="none"><rect width="1920" height="1080" x="0" y="0" fill="rgba(255, 179, 3, 1)"></rect><path d="M1761 111L1760 873" stroke-width="10" stroke="url(&quot;#SvgjsLinearGradient1053&quot;)" stroke-linecap="round" class="Up"></path><path d="M259 779L258 1155" stroke-width="6" stroke="url(&quot;#SvgjsLinearGradient1054&quot;)" stroke-linecap="round" class="Down"></path><path d="M1862 592L1861 120" stroke-width="6" stroke="url(&quot;#SvgjsLinearGradient1053&quot;)" stroke-linecap="round" class="Up"></path><path d="M1281 534L1280 1152" stroke-width="6" stroke="url(&quot;#SvgjsLinearGradient1053&quot;)" stroke-linecap="round" class="Up"></path><path d="M1129 731L1128 -38" stroke-width="10" stroke="url(&quot;#SvgjsLinearGradient1053&quot;)" stroke-linecap="round" class="Up"></path><path d="M977 1018L976 1334" stroke-width="10" stroke="url(&quot;#SvgjsLinearGradient1054&quot;)" stroke-linecap="round" class="Down"></path><path d="M1874 1067L1873 626" stroke-width="8" stroke="url(&quot;#SvgjsLinearGradient1054&quot;)" stroke-linecap="round" class="Down"></path><path d="M1454 757L1453 -43" stroke-width="10" stroke="url(&quot;#SvgjsLinearGradient1053&quot;)" stroke-linecap="round" class="Up"></path><path d="M56 716L55 1013" stroke-width="10" stroke="url(&quot;#SvgjsLinearGradient1054&quot;)" stroke-linecap="round" class="Down"></path><path d="M719 1001L718 670" stroke-width="8" stroke="url(&quot;#SvgjsLinearGradient1054&quot;)" stroke-linecap="round" class="Down"></path><path d="M1596 217L1595 -430" stroke-width="8" stroke="url(&quot;#SvgjsLinearGradient1054&quot;)" stroke-linecap="round" class="Down"></path><path d="M300 835L299 184" stroke-width="8" stroke="url(&quot;#SvgjsLinearGradient1053&quot;)" stroke-linecap="round" class="Up"></path><path d="M501 883L500 488" stroke-width="8" stroke="url(&quot;#SvgjsLinearGradient1054&quot;)" stroke-linecap="round" class="Down"></path><path d="M546 808L545 1448" stroke-width="6" stroke="url(&quot;#SvgjsLinearGradient1053&quot;)" stroke-linecap="round" class="Up"></path><path d="M1193 171L1192 -228" stroke-width="8" stroke="url(&quot;#SvgjsLinearGradient1053&quot;)" stroke-linecap="round" class="Up"></path><path d="M72 185L71 -462" stroke-width="8" stroke="url(&quot;#SvgjsLinearGradient1054&quot;)" stroke-linecap="round" class="Down"></path><path d="M102 823L101 1307" stroke-width="8" stroke="url(&quot;#SvgjsLinearGradient1053&quot;)" stroke-linecap="round" class="Up"></path><path d="M1647 717L1646 1167" stroke-width="10" stroke="url(&quot;#SvgjsLinearGradient1054&quot;)" stroke-linecap="round" class="Down"></path><path d="M439 246L438 957" stroke-width="10" stroke="url(&quot;#SvgjsLinearGradient1053&quot;)" stroke-linecap="round" class="Up"></path><path d="M176 902L175 1260" stroke-width="6" stroke="url(&quot;#SvgjsLinearGradient1053&quot;)" stroke-linecap="round" class="Up"></path><path d="M1677 783L1676 417" stroke-width="10" stroke="url(&quot;#SvgjsLinearGradient1054&quot;)" stroke-linecap="round" class="Down"></path><path d="M1009 62L1008 723" stroke-width="10" stroke="url(&quot;#SvgjsLinearGradient1054&quot;)" stroke-linecap="round" class="Down"></path><path d="M558 26L557 638" stroke-width="8" stroke="url(&quot;#SvgjsLinearGradient1053&quot;)" stroke-linecap="round" class="Up"></path><path d="M617 1063L616 1466" stroke-width="6" stroke="url(&quot;#SvgjsLinearGradient1053&quot;)" stroke-linecap="round" class="Up"></path><path d="M762 350L761 779" stroke-width="10" stroke="url(&quot;#SvgjsLinearGradient1054&quot;)" stroke-linecap="round" class="Down"></path><path d="M1644 991L1643 501" stroke-width="10" stroke="url(&quot;#SvgjsLinearGradient1053&quot;)" stroke-linecap="round" class="Up"></path><path d="M813 173L812 -262" stroke-width="8" stroke="url(&quot;#SvgjsLinearGradient1053&quot;)" stroke-linecap="round" class="Up"></path><path d="M564 388L563 -99" stroke-width="8" stroke="url(&quot;#SvgjsLinearGradient1054&quot;)" stroke-linecap="round" class="Down"></path><path d="M710 230L709 -199" stroke-width="6" stroke="url(&quot;#SvgjsLinearGradient1054&quot;)" stroke-linecap="round" class="Down"></path><path d="M65 873L64 103" stroke-width="8" stroke="url(&quot;#SvgjsLinearGradient1053&quot;)" stroke-linecap="round" class="Up"></path><path d="M1564 276L1563 817" stroke-width="8" stroke="url(&quot;#SvgjsLinearGradient1054&quot;)" stroke-linecap="round" class="Down"></path><path d="M1431 322L1430 649" stroke-width="10" stroke="url(&quot;#SvgjsLinearGradient1053&quot;)" stroke-linecap="round" class="Up"></path><path d="M102 910L101 324" stroke-width="6" stroke="url(&quot;#SvgjsLinearGradient1054&quot;)" stroke-linecap="round" class="Down"></path><path d="M1468 960L1467 596" stroke-width="8" stroke="url(&quot;#SvgjsLinearGradient1054&quot;)" stroke-linecap="round" class="Down"></path><path d="M1832 1011L1831 327" stroke-width="10" stroke="url(&quot;#SvgjsLinearGradient1054&quot;)" stroke-linecap="round" class="Down"></path><path d="M82 592L81 293" stroke-width="6" stroke="url(&quot;#SvgjsLinearGradient1053&quot;)" stroke-linecap="round" class="Up"></path><path d="M1143 960L1142 1357" stroke-width="6" stroke="url(&quot;#SvgjsLinearGradient1054&quot;)" stroke-linecap="round" class="Down"></path><path d="M986 495L985 73" stroke-width="10" stroke="url(&quot;#SvgjsLinearGradient1053&quot;)" stroke-linecap="round" class="Up"></path><path d="M1332 155L1331 734" stroke-width="6" stroke="url(&quot;#SvgjsLinearGradient1054&quot;)" stroke-linecap="round" class="Down"></path><path d="M1057 563L1056 16" stroke-width="10" stroke="url(&quot;#SvgjsLinearGradient1054&quot;)" stroke-linecap="round" class="Down"></path><path d="M1527 801L1526 155" stroke-width="6" stroke="url(&quot;#SvgjsLinearGradient1054&quot;)" stroke-linecap="round" class="Down"></path><path d="M207 295L206 -214" stroke-width="6" stroke="url(&quot;#SvgjsLinearGradient1053&quot;)" stroke-linecap="round" class="Up"></path><path d="M1697 990L1696 278" stroke-width="6" stroke="url(&quot;#SvgjsLinearGradient1054&quot;)" stroke-linecap="round" class="Down"></path><path d="M870 935L869 475" stroke-width="6" stroke="url(&quot;#SvgjsLinearGradient1054&quot;)" stroke-linecap="round" class="Down"></path><path d="M1091 724L1090 1383" stroke-width="6" stroke="url(&quot;#SvgjsLinearGradient1053&quot;)" stroke-linecap="round" class="Up"></path><path d="M1727 822L1726 408" stroke-width="10" stroke="url(&quot;#SvgjsLinearGradient1053&quot;)" stroke-linecap="round" class="Up"></path><path d="M181 1056L180 527" stroke-width="10" stroke="url(&quot;#SvgjsLinearGradient1053&quot;)" stroke-linecap="round" class="Up"></path><path d="M415 877L414 586" stroke-width="10" stroke="url(&quot;#SvgjsLinearGradient1053&quot;)" stroke-linecap="round" class="Up"></path></g><defs><mask id="SvgjsMask1052"><rect width="1920" height="1080" fill="#ffffff"></rect></mask><linearGradient x1="0%" y1="100%" x2="0%" y2="0%" id="SvgjsLinearGradient1053"><stop stop-color="rgba(255, 207, 96, 0)" offset="0"></stop><stop stop-color="rgba(255, 207, 96, 1)" offset="1"></stop></linearGradient><linearGradient x1="0%" y1="0%" x2="0%" y2="100%" id="SvgjsLinearGradient1054"><stop stop-color="rgba(255, 207, 96, 0)" offset="0"></stop><stop stop-color="rgba(255, 207, 96, 1)" offset="1"></stop></linearGradient></defs></svg>