<svg xmlns="http://www.w3.org/2000/svg" version="1.1" xmlns:xlink="http://www.w3.org/1999/xlink" xmlns:svgjs="http://svgjs.dev/svgjs" width="1920" height="1080" preserveAspectRatio="none" viewBox="0 0 1920 1080"><g mask="url(&quot;#SvgjsMask1205&quot;)" fill="none"><rect width="1920" height="1080" x="0" y="0" fill="rgba(255, 179, 3, 1)"></rect><path d="M0,871.568C165.142,889.007,320.778,805.827,465.213,723.885C616.474,638.07,789.635,551.37,851.128,388.697C911.986,227.706,810.335,57.31,781.32,-112.337C753.232,-276.561,776.492,-453.988,683.371,-592.144C585.415,-737.473,426.03,-829.384,260.06,-885.684C89.435,-943.563,-105.067,-990.52,-268.699,-915.104C-428.475,-841.466,-482.367,-648.269,-576.941,-499.922C-657.033,-374.293,-773.369,-261.041,-780.552,-112.226C-787.548,32.716,-679.852,151.065,-614.62,280.687C-552.152,404.816,-506.259,535.571,-406.083,631.878C-290.43,743.064,-159.544,854.72,0,871.568" fill="#e8a200"></path><path d="M1920 1896.779C2069.3940000000002 1912.719 2170.843 1747.912 2293.305 1660.874 2409.251 1578.468 2566.989 1531.659 2619.6459999999997 1399.517 2672.0190000000002 1268.09 2586.757 1126.973 2561.535 987.761 2537.3959999999997 854.5260000000001 2544.7870000000003 715.21 2474.676 599.371 2397.0860000000002 471.17499999999995 2286.969 359.73699999999997 2147.802 304.177 2001.905 245.92999999999995 1828.996 218.61300000000006 1686.478 284.696 1547.838 348.981 1519.528 530.864 1416.165 643.424 1308.347 760.835 1104.4360000000001 802.265 1068.567 957.582 1032.933 1111.882 1142.431 1267.238 1244.049 1388.696 1331.906 1493.705 1485.162 1504.057 1594.607 1586.3220000000001 1716.919 1678.259 1767.852 1880.545 1920 1896.779" fill="#ffbb1d"></path></g><defs><mask id="SvgjsMask1205"><rect width="1920" height="1080" fill="#ffffff"></rect></mask></defs></svg>