<svg xmlns="http://www.w3.org/2000/svg" version="1.1" xmlns:xlink="http://www.w3.org/1999/xlink" xmlns:svgjs="http://svgjs.dev/svgjs" width="1920" height="1080" preserveAspectRatio="none" viewBox="0 0 1920 1080"><g mask="url(&quot;#SvgjsMask1101&quot;)" fill="none"><rect width="1920" height="1080" x="0" y="0" fill="rgba(255, 201, 75, 1)"></rect><path d="M 0,26 C 76.8,76.2 230.4,277.6 384,277 C 537.6,276.4 614.4,17.8 768,23 C 921.6,28.2 998.4,268.2 1152,303 C 1305.6,337.8 1382.4,171.4 1536,197 C 1689.6,222.6 1843.2,384.2 1920,431L1920 1080L0 1080z" fill="rgba(255, 179, 3, 1)"></path><path d="M 0,1079 C 128,986.8 384,639 640,618 C 896,597 1024,951.4 1280,974 C 1536,996.6 1792,779.6 1920,731L1920 1080L0 1080z" fill="rgba(255, 205, 89, 1)"></path></g><defs><mask id="SvgjsMask1101"><rect width="1920" height="1080" fill="#ffffff"></rect></mask></defs></svg>