<?xml version="1.0" encoding="UTF-8" standalone="no"?>
<svg
   id="Layer_1"
   data-name="Layer 1"
   viewBox="0 0 1289.01 1005.71"
   version="1.1"
   sodipodi:docname="alt_lt_cerna.svg"
   inkscape:version="1.3.2 (091e20e, 2023-11-25, custom)"
   xmlns:inkscape="http://www.inkscape.org/namespaces/inkscape"
   xmlns:sodipodi="http://sodipodi.sourceforge.net/DTD/sodipodi-0.dtd"
   xmlns="http://www.w3.org/2000/svg"
   xmlns:svg="http://www.w3.org/2000/svg">
  <sodipodi:namedview
     id="namedview3"
     pagecolor="#505050"
     bordercolor="#ffffff"
     borderopacity="1"
     inkscape:showpageshadow="0"
     inkscape:pageopacity="0"
     inkscape:pagecheckerboard="1"
     inkscape:deskcolor="#505050"
     inkscape:zoom="0.56527228"
     inkscape:cx="367.96427"
     inkscape:cy="347.62009"
     inkscape:window-width="2560"
     inkscape:window-height="1351"
     inkscape:window-x="2391"
     inkscape:window-y="-9"
     inkscape:window-maximized="1"
     inkscape:current-layer="Layer_1" />
  <defs
     id="defs1">
    <style
       id="style1">
      .cls-1, .cls-2, .cls-3, .cls-4 {
        stroke-width: 0px;
      }

      .cls-1, .cls-3 {
        fill: #fff;
      }

      .cls-1, .cls-4 {
        fill-rule: evenodd;
      }

      .cls-2, .cls-4 {
        fill: #ffb303;
      }
    </style>
  </defs>
  <path
     class="cls-3"
     d="m 424.30317,362.63459 c 0,3.55105 -0.77276,10.04597 -2.2815,19.55836 -1.60072,10.30357 -3.05426,16.43051 -4.28701,18.41761 -1.04875,1.56394 -2.5575,2.37351 -4.41581,2.37351 -0.77276,0 -2.13431,-0.12884 -4.01104,-0.38639 -6.45811,-0.80956 -25.39091,-1.23274 -56.79837,-1.23274 -6.8261,0 -17.01927,-0.0367 -30.5427,-0.12884 -13.46823,-0.0736 -23.62458,-0.12884 -30.3587,-0.12884 -2.96227,0 -4.41581,-1.17755 -4.41581,-3.58785 0,-9.25479 0.55197,-23.1094 1.63753,-41.65581 1.14075,-18.50961 1.67433,-32.40102 1.67433,-41.65583 0,-9.25479 -0.55198,-26.91805 -1.60074,-52.60336 -0.27599,-6.58691 -0.77276,-16.43049 -1.45353,-29.56752 l -0.12884,-1.72953 c -0.184,-1.89512 0.91995,-2.83349 3.33025,-2.83349 6.60532,0 16.4673,0.1656 29.65953,0.45998 13.19224,0.34959 23.07263,0.49678 29.67794,0.49678 6.60532,0 16.2465,-0.16559 29.30995,-0.49678 13.06343,-0.29438 22.85181,-0.45998 29.34674,-0.45998 4.59981,0 7.28609,1.60074 8.00365,4.8206 0.40479,1.89511 1.08557,7.65406 2.04233,17.27687 0.91995,9.58598 1.41673,15.41854 1.41673,17.49765 0,1.72953 -0.91995,2.61269 -2.68629,2.61269 -0.55197,0 -1.45353,-0.0367 -2.77827,-0.12884 -23.66139,-1.82152 -44.91248,-2.74149 -63.75329,-2.74149 -4.69179,0 -7.59887,1.04877 -8.64762,3.12786 -0.45998,0.97517 -0.68078,4.13983 -0.68078,9.5124 0,5.37257 0.91997,9.3468 2.68628,11.14993 1.50874,1.56394 4.37903,2.3183 8.64765,2.3183 0.91995,0 2.63109,-0.0367 5.18857,-0.16558 2.5943,-0.12884 4.72859,-0.1656 6.42133,-0.1656 11.18672,0 22.52064,-0.29438 34.00174,-0.88317 0.99357,-0.0736 3.40386,-0.29438 7.32289,-0.62557 3.05428,-0.29438 5.40937,-0.45998 7.1941,-0.45998 2.13431,0 3.23826,0.91996 3.23826,2.83348 0,-1.72953 -0.80956,4.59981 -2.4103,18.93279 -0.73597,6.62371 -1.04875,13.22903 -1.04875,19.81596 0,1.65592 -1.32475,2.50229 -3.86384,2.50229 0,0 -4.01102,-0.42317 -12.01468,-1.26954 -5.05979,-0.45998 -16.61449,-0.71758 -34.68252,-0.71758 h -14.1122 c -3.64304,0 -5.77736,0.80957 -6.42133,2.44711 -0.092,0.42317 -0.12883,2.99906 -0.12883,7.69086 0,6.29254 0.45998,10.30356 1.32473,12.1251 1.54555,3.12786 7.2309,4.98617 17.07448,5.57495 -0.12884,0 6.32933,0 19.48477,0 4.72859,0 11.70191,-0.38639 21.0303,-1.17755 9.2916,-0.75438 16.24652,-1.17756 20.84631,-1.17756 1.95031,0 2.96227,1.52715 2.96227,4.47102 v 0 z m 191.71982,-49.27311 c 0,24.25018 -8.40844,45.29888 -25.20692,63.12772 -14.82977,15.91532 -35.67607,24.28696 -62.52053,25.13332 -5.13338,0.1656 -19.33759,0.25759 -42.55739,0.25759 -4.3238,0 -10.87393,-0.12884 -19.66876,-0.38639 -8.73962,-0.25758 -15.28974,-0.38638 -19.66877,-0.38638 -2.55748,0 -3.86381,-0.91995 -3.86381,-2.83347 0,-9.08922 0.40477,-22.72304 1.14074,-40.93826 0.77276,-18.16003 1.14075,-31.81224 1.14075,-40.90145 0,-9.08921 -0.36799,-23.69819 -1.14075,-42.63099 -0.73597,-18.93278 -1.14074,-33.11858 -1.14074,-42.53897 0,-1.72953 1.32473,-2.74148 3.86381,-3.09108 6.32934,-0.62556 16.65131,-0.97516 31.07629,-0.97516 27.34122,0 45.09648,0.38638 53.19212,1.10396 21.06711,1.98711 37.53442,6.91811 49.45709,14.86656 11.18672,7.39649 20.01836,17.82884 26.53167,31.18668 6.18214,12.64026 9.32841,25.6117 9.32841,38.98794 z m -51.05782,0 c 0,-13.94659 -4.5078,-25.3541 -13.46823,-34.18574 -9.0524,-9.1628 -21.06709,-13.7258 -35.98886,-13.7258 -13.70741,0 -20.51512,1.69271 -20.51512,5.07818 0,4.85739 -0.092,12.21708 -0.27599,21.96866 -0.18399,9.80678 -0.27598,17.11128 -0.27598,21.96866 0,4.8574 0.092,11.99629 0.27598,21.58229 0.184,9.64118 0.27599,16.85368 0.27599,21.76627 0,3.55104 7.10209,5.31736 21.2879,5.31736 15.38174,0 27.48841,-4.76539 36.26484,-14.24099 8.27965,-8.99722 12.41947,-20.86471 12.41947,-35.52889 z m 230.91014,27.01007 c 0,21.0303 -2.72308,35.36328 -8.15084,43.05414 -9.97238,14.02021 -34.81132,21.03031 -74.53523,21.03031 -17.92082,0 -31.75704,-1.26954 -41.45343,-3.84544 -15.47373,-4.10302 -25.4829,-11.99629 -30.11952,-23.62459 -2.31829,-5.70376 -3.45905,-15.84172 -3.45905,-30.46909 0,-3.38547 0.12884,-8.40845 0.40479,-15.08736 0.22079,-6.71571 0.36798,-11.70189 0.36798,-14.99536 0,-9.5492 -0.45997,-23.91898 -1.45354,-43.05416 -0.95674,-19.19038 -1.45353,-33.46818 -1.45353,-42.96217 0,-1.98712 0.91996,-2.96227 2.77828,-2.96227 5.46457,0 13.65222,0.22079 24.61816,0.58876 10.96593,0.4232 19.15357,0.62558 24.58134,0.62558 2.22631,0 3.36705,0.88316 3.36705,2.70469 0,10.91074 -0.40478,27.21243 -1.14074,48.96031 -0.77278,21.76628 -1.14075,38.06797 -1.14075,48.96032 0,12.91625 1.45353,21.67426 4.4158,26.23727 3.91904,6.16374 12.0515,9.29161 24.52617,9.29161 18.19682,0 27.30442,-8.24285 27.30442,-24.63655 0,-11.99629 -0.31279,-29.91713 -0.91996,-53.87291 -0.64397,-23.91898 -0.95676,-41.87661 -0.95676,-53.8177 0,-2.57589 1.14075,-3.84543 3.33027,-3.84543 5.28057,0 13.19223,-0.2024 23.75337,-0.62557 10.56116,-0.38639 18.47282,-0.58879 23.71659,-0.58879 2.59429,0 3.86384,0.97517 3.86384,2.96228 0,9.51239 -0.40478,23.79019 -1.23275,42.96217 -0.86476,19.13518 -1.26954,33.50497 -1.26954,43.05417 0,2.66788 0.0367,6.6421 0.12883,11.95948 0.092,5.31737 0.12884,9.29161 0.12884,11.95949 v 0 z"
     id="path1"
     style="fill:#000000;fill-opacity:1" />
  <path
     class="cls-2"
     d="m 709.17822,560.37095 c 0,1.30634 -0.91997,3.03586 -2.77828,5.18858 -16.3385,18.08642 -38.08638,27.12044 -65.20682,27.12044 -27.12044,0 -50.19306,-8.79484 -67.43313,-26.36607 -16.79848,-17.01927 -25.20692,-38.49116 -25.20692,-64.39727 0,-25.90609 8.24284,-46.38441 24.65495,-63.88206 17.14807,-18.28882 38.98794,-27.45163 65.48281,-27.45163 28.75797,0 51.37061,8.18765 67.70911,24.63656 1.76632,1.82151 2.63109,3.42224 2.63109,4.82058 0,1.56393 -3.05427,7.39649 -9.23641,17.44247 -6.18214,10.10116 -10.04597,15.71292 -11.6467,16.98247 -0.73597,0.62557 -1.63754,0.97516 -2.68628,0.97516 -0.45999,0 -2.6863,-1.65594 -6.69732,-4.9494 -4.7838,-3.97423 -9.5124,-7.0469 -14.1122,-9.2916 -7.0101,-3.29346 -14.33299,-4.94938 -21.87666,-4.94938 -13.06345,0 -23.47741,4.5262 -31.29708,13.59701 -7.19408,8.40844 -10.78193,18.8408 -10.78193,31.22347 0,12.38266 3.58785,23.03582 10.78193,31.55465 7.81967,9.21801 18.25203,13.85461 31.29708,13.85461 7.72767,0 15.06894,-1.56394 22.02385,-4.72859 4.50782,-2.02391 9.14441,-4.9494 13.87301,-8.66604 3.86383,-3.12787 6.05334,-4.6918 6.49492,-4.6918 0.91996,0 1.76634,0.45998 2.68629,1.34314 1.41675,1.47194 5.28058,6.64213 11.60991,15.45534 6.45811,9.16281 9.69638,14.2042 9.69638,15.12416 v 0 z m 193.30215,24.13976 c 0,1.72953 -0.40479,2.83349 -1.17756,3.20147 -0.36798,0.25758 -1.60073,0.45999 -3.73503,0.62557 -5.40937,0.49678 -13.06345,0.75437 -22.92542,0.75437 -13.96501,0 -22.15265,-0.25759 -24.61815,-0.75437 -2.4103,-0.49677 -3.64305,-1.60072 -3.64305,-3.34865 0,-6.49493 0.31279,-16.30171 0.99356,-29.40195 0.64398,-13.06344 0.99355,-22.85181 0.99355,-29.40194 0,-3.20146 -0.99355,-5.07819 -2.96227,-5.57497 -2.99906,-0.62557 -13.74421,-0.97515 -32.25381,-0.97515 -18.50963,0 -29.40196,0.34958 -32.52982,0.97515 -1.95032,0.42319 -2.90708,2.28152 -2.90708,5.57497 0,6.45811 0.2392,16.09931 0.68077,28.90516 0.40479,12.84266 0.64397,22.48384 0.64397,28.90518 0,2.50228 -1.17755,3.91902 -3.58785,4.3422 -2.81507,0.49678 -11.18672,0.75437 -25.07812,0.75437 -11.97788,0 -19.61357,-0.25759 -22.88862,-0.75437 -2.59429,-0.42318 -3.86384,-1.69273 -3.86384,-3.84543 0,-8.92362 0.45998,-22.35505 1.36154,-40.34947 0.95676,-17.99445 1.41674,-31.48107 1.41674,-40.47829 0,-9.54918 -0.45998,-23.95577 -1.32474,-43.12775 -0.91996,-19.19038 -1.36155,-33.54176 -1.36155,-43.12776 0,-1.82152 0.95677,-2.70469 2.81509,-2.70469 2.77828,0 6.9181,0.12884 12.47467,0.34959 5.55657,0.25759 9.69639,0.38639 12.47466,0.38639 2.77828,0 7.13889,-0.12884 12.87946,-0.38639 5.74055,-0.20238 10.00917,-0.34959 12.82425,-0.34959 1.50874,0 2.2815,0.71757 2.2815,2.18951 0,6.21893 -0.49677,15.45534 -1.45353,27.80121 -0.99356,12.34588 -1.45355,21.58228 -1.45355,27.80122 0,2.87027 0.80957,4.56301 2.5023,5.07818 2.3183,0.68077 13.68901,0.97515 34.13054,0.97515 19.02479,0 30.02751,-0.29438 33.08179,-0.97515 2.13431,-0.49679 3.18306,-2.1895 3.18306,-5.07818 0,-5.96135 -0.31279,-14.92176 -0.91996,-26.91805 -0.64397,-12.03309 -0.95676,-21.03031 -0.95676,-27.08365 0,-2.53908 1.14075,-3.80864 3.33026,-3.80864 2.59429,0 6.49493,0.12884 11.83069,0.34959 5.28058,0.25759 9.2364,0.38638 11.92269,0.38638 2.68628,0 6.49492,-0.12884 11.7755,-0.38638 5.28058,-0.20239 9.29161,-0.34959 11.92269,-0.34959 2.63109,0 3.86384,0.97516 3.86384,2.96229 0,9.51238 -0.40479,23.79017 -1.26956,42.96216 -0.80955,19.13519 -1.23274,33.50497 -1.23274,43.05415 0,8.99722 0.45999,22.48384 1.36154,40.47829 0.95676,17.99442 1.41675,31.44425 1.41675,40.34947 v 0 z M 1063.5656,549.865 c 0,3.55104 -0.7728,10.04596 -2.2815,19.55836 -1.6008,10.30356 -3.0543,16.43049 -4.287,18.41762 -1.0489,1.56394 -2.5576,2.37349 -4.4159,2.37349 -0.7727,0 -2.1343,-0.12884 -4.011,-0.38638 -6.4582,-0.80956 -25.391,-1.23275 -56.78001,-1.23275 -6.82614,0 -17.01931,-0.0367 -30.52433,-0.12884 -13.46823,-0.0736 -23.6062,-0.12884 -30.34031,-0.12884 -2.96226,0 -4.41581,-1.17754 -4.41581,-3.58785 0,-9.25481 0.55198,-23.10941 1.63753,-41.65581 1.14076,-18.50962 1.67432,-32.40102 1.67432,-41.65583 0,-9.25481 -0.55197,-26.91805 -1.60073,-52.60336 -0.27598,-6.58691 -0.77275,-16.43049 -1.45353,-29.56752 l -0.12884,-1.72953 c -0.18398,-1.89513 0.90157,-2.83349 3.33026,-2.83349 6.60532,0 16.46731,0.16559 29.65954,0.45998 13.19224,0.34959 23.07261,0.49678 29.65954,0.49678 6.58686,0 16.24657,-0.16559 29.31007,-0.49678 13.0634,-0.29439 22.8334,-0.45998 29.3467,-0.45998 4.5998,0 7.2861,1.60074 8.0036,4.82059 0.4048,1.89512 1.0856,7.65408 2.0423,17.27687 0.9201,9.58599 1.4168,15.41854 1.4168,17.49766 0,1.72952 -0.92,2.61268 -2.6863,2.61268 -0.552,0 -1.4535,-0.0367 -2.7782,-0.12884 -23.6615,-1.82151 -44.9126,-2.74147 -63.75341,-2.74147 -4.69182,0 -7.59889,1.04874 -8.64763,3.12786 -0.45999,0.97516 -0.68078,4.13982 -0.68078,9.51239 0,5.37257 0.91997,9.34681 2.68628,11.14993 1.50874,1.56393 4.36062,2.31829 8.64763,2.31829 0.92,0 2.6311,-0.0367 5.1886,-0.16559 2.5943,-0.12884 4.72871,-0.16559 6.42131,-0.16559 11.1868,0 22.5207,-0.29438 33.9834,-0.88316 0.9935,-0.0736 3.4039,-0.2944 7.3229,-0.62558 3.0543,-0.29438 5.4094,-0.45997 7.194,-0.45997 2.1344,0 3.2383,0.91995 3.2383,2.83348 0,-1.72953 -0.8095,4.5998 -2.4102,18.9328 -0.736,6.6237 -1.0488,13.22902 -1.0488,19.81594 0,1.65593 -1.3248,2.5023 -3.8638,2.5023 0,0 -4.0111,-0.42319 -12.0147,-1.26956 -5.0414,-0.45997 -16.6145,-0.71757 -34.6642,-0.71757 h -14.11219 c -3.64306,0 -5.77736,0.80958 -6.42133,2.4471 -0.092,0.42319 -0.12884,2.99908 -0.12884,7.69088 0,6.29254 0.45998,10.30356 1.32474,12.12507 1.54555,3.12787 7.23089,4.9862 17.05601,5.57498 -0.1288,0 6.32941,0 19.46651,0 4.7286,0 11.7019,-0.38639 21.0302,-1.17756 9.2917,-0.75436 16.2466,-1.17754 20.8464,-1.17754 1.9503,0 2.9623,1.52713 2.9623,4.47101 v 0 z m 216.4851,34.64571 c 0,2.57589 -1.3247,3.84545 -3.8638,3.84545 h -47.194 c -2.5943,0 -3.8638,-1.43515 -3.8638,-4.34223 0,-8.31643 0.3128,-20.82791 0.9935,-37.47919 0.644,-16.68809 0.9936,-29.19955 0.9936,-37.51599 0,-2.4103 -0.4048,-3.67986 -1.2327,-3.84545 -0.9569,0.49678 -6.9181,13.26584 -17.8289,38.27036 -6.4213,14.66418 -12.8243,29.32836 -19.2088,43.93734 -0.9199,1.85832 -2.0055,2.99907 -3.3303,3.34865 -0.46,0.0736 -2.2263,0.12884 -5.3725,0.12884 -4.5998,0 -7.3781,-0.84636 -8.2429,-2.50229 -4.8206,-9.08922 -11.0947,-22.26307 -18.9328,-39.63191 -8.3716,-18.28883 -14.6641,-31.55466 -18.7856,-39.7055 -0.184,-0.42319 -0.5887,-0.84637 -1.2327,-1.34314 -0.5888,0.71756 -0.92,1.95031 -0.92,3.58782 0,8.07727 0.2392,20.18396 0.644,36.37525 0.46,16.19132 0.6808,28.29801 0.6808,36.37525 0,2.92549 -1.2328,4.34223 -3.735,4.34223 h -44.5077 c -1.8216,0 -2.8704,-0.2576 -3.2752,-0.80957 -0.4047,-0.55198 -0.5887,-1.47194 -0.5887,-2.79669 0,-8.9972 0.4599,-22.52062 1.3615,-40.51507 0.9568,-18.03123 1.4168,-31.55465 1.4168,-40.55186 0,-9.54919 -0.46,-27.50682 -1.3248,-53.8177 -0.092,-6.84451 -0.4968,-17.07447 -1.2327,-30.5795 l -0.1288,-2.11591 c -0.037,-1.65593 1.8215,-2.44709 5.6485,-2.44709 4.8758,0 12.1987,-0.1656 21.9687,-0.45998 9.7884,-0.25759 17.1113,-0.42318 21.9686,-0.42318 0.9936,0 2.3736,1.72952 4.1399,5.18857 l 38.951,79.33741 c 2.7232,5.37258 5.0415,8.07727 6.9182,8.07727 0.9568,0 3.0543,-3.12788 6.2741,-9.29161 8.9605,-17.31367 22.2447,-43.47734 39.8712,-78.36226 1.5087,-3.21986 3.1278,-4.8206 4.9125,-4.8206 2.5943,0 6.4581,0.12884 11.6467,0.38639 5.2438,0.25759 9.1444,0.38639 11.8307,0.38639 2.1895,0 5.5934,-0.2024 10.1931,-0.62557 4.5447,-0.4232 7.967,-0.62558 10.1933,-0.62558 2.631,0 4.011,1.01196 4.011,2.99906 0,9.7148 -0.4048,24.25017 -1.1408,43.60615 -0.7728,19.35597 -1.1407,33.92816 -1.1407,43.64294 0,8.99721 0.4047,22.48384 1.1775,40.47826 0.8096,17.99444 1.2328,31.44425 1.2328,40.34948 h 0.018 z"
     id="path2" />
  <polygon
     class="cls-1"
     points="299.08,550 299.08,456.03 435.2,558.62 435.2,558.7 571.32,456.11 571.32,550.08 435.2,652.67 435.2,652.59 "
     id="polygon2"
     transform="matrix(1.8399215,0,0,1.8399215,-541.32441,-422.34951)"
     style="fill:#000000;fill-opacity:1" />
  <polygon
     class="cls-4"
     points="426.53,354.13 426.53,446.4 366.45,493 306.15,447.49 "
     id="polygon3"
     transform="matrix(1.8399215,0,0,1.8399215,-541.32441,-422.34951)" />
</svg>
